<?xml version="1.0" encoding="UTF-8" standalone="no"?>
<svg
   xmlns:dc="http://purl.org/dc/elements/1.1/"
   xmlns:cc="http://creativecommons.org/ns#"
   xmlns:rdf="http://www.w3.org/1999/02/22-rdf-syntax-ns#"
   xmlns:svg="http://www.w3.org/2000/svg"
   xmlns="http://www.w3.org/2000/svg"
   xmlns:sodipodi="http://sodipodi.sourceforge.net/DTD/sodipodi-0.dtd"
   xmlns:inkscape="http://www.inkscape.org/namespaces/inkscape"
   width="24"
   height="24"
   viewBox="0 0 24 24"
   fill="none"
   stroke="currentColor"
   stroke-width="2"
   stroke-linecap="round"
   stroke-linejoin="round"
   class="feather feather-shopping-cart"
   id="svg2"
   version="1.1"
   inkscape:version="0.91 r13725"
   sodipodi:docname="shopping-cart.svg">
  <metadata
     id="metadata14">
    <rdf:RDF>
      <cc:Work
         rdf:about="">
        <dc:format>image/svg+xml</dc:format>
        <dc:type
           rdf:resource="http://purl.org/dc/dcmitype/StillImage" />
      </cc:Work>
    </rdf:RDF>
  </metadata>
  <defs
     id="defs12" />
  <sodipodi:namedview
     pagecolor="#ffffff"
     bordercolor="#666666"
     borderopacity="1"
     objecttolerance="10"
     gridtolerance="10"
     guidetolerance="10"
     inkscape:pageopacity="0"
     inkscape:pageshadow="2"
     inkscape:window-width="2560"
     inkscape:window-height="1051"
     id="namedview10"
     showgrid="false"
     inkscape:zoom="6.9532167"
     inkscape:cx="-69.038192"
     inkscape:cy="5.2791182"
     inkscape:window-x="0"
     inkscape:window-y="0"
     inkscape:window-maximized="1"
     inkscape:current-layer="svg2" />
  <circle
     cx="9"
     cy="21"
     r="1"
     id="circle4"
     style="fill:#ffffff;stroke:#ffffff" />
  <circle
     cx="20"
     cy="21"
     r="1"
     id="circle6"
     style="fill:#ffffff;stroke:#ffffff" />
  <path
     style="color:#000000;font-style:normal;font-variant:normal;font-weight:normal;font-stretch:normal;font-size:medium;line-height:normal;font-family:sans-serif;text-indent:0;text-align:start;text-decoration:none;text-decoration-line:none;text-decoration-style:solid;text-decoration-color:#000000;letter-spacing:normal;word-spacing:normal;text-transform:none;direction:ltr;block-progression:tb;writing-mode:lr-tb;baseline-shift:baseline;text-anchor:start;white-space:normal;clip-rule:nonzero;display:inline;overflow:visible;visibility:visible;opacity:1;isolation:auto;mix-blend-mode:normal;color-interpolation:sRGB;color-interpolation-filters:linearRGB;solid-color:#000000;solid-opacity:1;fill:#ffffff;fill-opacity:1;fill-rule:nonzero;stroke:none;stroke-width:2;stroke-linecap:butt;stroke-linejoin:miter;stroke-miterlimit:4;stroke-dasharray:none;stroke-dashoffset:0;stroke-opacity:1;color-rendering:auto;image-rendering:auto;shape-rendering:auto;text-rendering:auto;enable-background:accumulate"
     d="m 1,0 a 1.0001,1.0001 0 1 0 0,2 l 3.1796875,0 0.8085937,4.0351562 a 1.0001,1.0001 0 0 0 0.0625,0.3164063 l 1.6484376,8.2343755 c 0.2825144,1.417987 1.5542496,2.441768 3,2.414062 l 9.6816402,0 c 1.44634,0.02772 2.718178,-0.997127 3,-2.416016 a 1.0001,1.0001 0 0 0 0.002,-0.0059 L 23.982422,6.1875 A 1.0001,1.0001 0 0 0 23,5 L 6.8203125,5 5.9804688,0.8046875 A 1.0001,1.0001 0 0 0 5,0 L 1,0 Z m 6.2207031,7 14.5703129,0 -1.371094,7.195312 c -0.09565,0.481575 -0.509108,0.814095 -1,0.804688 a 1.0001,1.0001 0 0 0 -0.01953,0 l -9.7207035,0 a 1.0001,1.0001 0 0 0 -0.019531,0 c -0.490892,0.0094 -0.9043486,-0.323113 -1,-0.804688 a 1.0001,1.0001 0 0 0 0,-0.002 L 7.2207031,7 Z"
     id="path8"
     inkscape:connector-curvature="0" />
</svg>
