<?xml version="1.0" encoding="UTF-8" standalone="no"?>
<svg
   xmlns:dc="http://purl.org/dc/elements/1.1/"
   xmlns:cc="http://creativecommons.org/ns#"
   xmlns:rdf="http://www.w3.org/1999/02/22-rdf-syntax-ns#"
   xmlns:svg="http://www.w3.org/2000/svg"
   xmlns="http://www.w3.org/2000/svg"
   xmlns:sodipodi="http://sodipodi.sourceforge.net/DTD/sodipodi-0.dtd"
   xmlns:inkscape="http://www.inkscape.org/namespaces/inkscape"
   xml:space="preserve"
   style="enable-background:new 0 0 60 60;"
   viewBox="0 0 60 60"
   y="0px"
   x="0px"
   id="Capa_1"
   version="1.1"
   inkscape:version="0.91 r13725"
   sodipodi:docname="talk.svg"><sodipodi:namedview
     pagecolor="#ffffff"
     bordercolor="#666666"
     borderopacity="1"
     objecttolerance="10"
     gridtolerance="10"
     guidetolerance="10"
     inkscape:pageopacity="0"
     inkscape:pageshadow="2"
     inkscape:window-width="1276"
     inkscape:window-height="1051"
     id="namedview23"
     showgrid="false"
     inkscape:zoom="3.9333333"
     inkscape:cx="30"
     inkscape:cy="30"
     inkscape:window-x="0"
     inkscape:window-y="0"
     inkscape:window-maximized="0"
     inkscape:current-layer="Capa_1" /><metadata
     id="metadata39"><rdf:RDF><cc:Work
         rdf:about=""><dc:format>image/svg+xml</dc:format><dc:type
           rdf:resource="http://purl.org/dc/dcmitype/StillImage" /><dc:title /></cc:Work></rdf:RDF></metadata><defs
     id="defs37" /><path
     style="fill:none;fill-rule:evenodd;stroke:#000000;stroke-width:1.56659484px;stroke-linecap:butt;stroke-linejoin:miter;stroke-opacity:1"
     d="m 43.950509,14.569982 c 1.636891,3.112886 1.991227,7.191734 0.925782,12.238281 l -0.01563,0.06445 -0.02344,0.06055 c -2.317452,5.894746 -6.331217,8.67531 -10.642578,10.205078 -4.30917,1.528989 -8.92312,1.920499 -12.730469,3.19336 l -0.0078,0.0039 -0.660156,0.226562 c 2.848125,1.991682 6.146431,1.844851 10.824218,3.410156 l 8.185547,1.138672 11.927735,5.433594 -6.171876,-7.83789 C 51.932274,43.259654 59.569371,38.374539 58.305978,28.83756 57.802332,21.057495 51.787237,16.65788 43.950509,14.569982 Z"
     id="path4196"
     inkscape:connector-curvature="0" /><g
     id="g5" /><g
     id="g7" /><g
     id="g9" /><g
     id="g11" /><g
     id="g13" /><g
     id="g15" /><g
     id="g17" /><g
     id="g19" /><g
     id="g21" /><g
     id="g23" /><g
     id="g25" /><g
     id="g27" /><g
     id="g29" /><g
     id="g31" /><g
     id="g33" /><path
     style="color:#000000;font-style:normal;font-variant:normal;font-weight:normal;font-stretch:normal;font-size:medium;line-height:normal;font-family:sans-serif;text-indent:0;text-align:start;text-decoration:none;text-decoration-line:none;text-decoration-style:solid;text-decoration-color:#000000;letter-spacing:normal;word-spacing:normal;text-transform:none;direction:ltr;block-progression:tb;writing-mode:lr-tb;baseline-shift:baseline;text-anchor:start;white-space:normal;clip-rule:nonzero;display:inline;overflow:visible;visibility:visible;opacity:1;isolation:auto;mix-blend-mode:normal;color-interpolation:sRGB;color-interpolation-filters:linearRGB;solid-color:#000000;solid-opacity:1;fill:#000000;fill-opacity:1;fill-rule:evenodd;stroke:none;stroke-width:1px;stroke-linecap:butt;stroke-linejoin:miter;stroke-miterlimit:4;stroke-dasharray:none;stroke-dashoffset:0;stroke-opacity:1;color-rendering:auto;image-rendering:auto;shape-rendering:auto;text-rendering:auto;enable-background:accumulate"
     d="M 25.884766 7 L 25.861328 7.0019531 C 19.697765 7.2916088 13.695734 8.5146895 9.0683594 11.109375 C 4.4490394 13.699544 1.2043886 17.75729 0.82617188 23.439453 C 0.17449348 28.416466 1.8627676 32.311644 4.5800781 34.8125 C 6.8070742 36.862099 9.6912882 37.750881 12.533203 37.935547 L 6.2636719 43.4375 L 6.9609375 44.791016 L 15.738281 42.734375 L 21.964844 40.589844 L 21.972656 40.585938 C 25.780005 39.313077 30.393955 38.921567 34.703125 37.392578 C 39.014486 35.86281 43.028251 33.082246 45.345703 27.1875 L 45.369141 27.126953 L 45.384766 27.0625 C 46.839477 20.172173 45.65478 15.079048 42.160156 11.796875 C 38.665534 8.5147035 33.074963 7.1046235 25.910156 7 L 25.884766 7 z M 26.222656 8.1152344 C 33.176252 8.2203848 38.359681 9.6342615 41.398438 12.488281 C 44.428975 15.33458 45.533044 19.680638 44.169922 26.214844 C 42.010093 31.661147 38.526608 34.030696 34.490234 35.462891 C 30.439042 36.900344 25.844247 37.286895 21.775391 38.648438 L 21.773438 38.652344 L 15.613281 40.771484 L 9.9570312 42.099609 L 16.966797 35.947266 L 14.585938 36.152344 C 11.625543 36.409336 8.3237548 35.388667 5.9511719 33.205078 C 3.5785905 31.021491 2.0870222 27.713583 2.6894531 23.166016 L 2.6933594 23.138672 L 2.6933594 23.115234 C 3.027735 17.950024 5.8395741 14.432333 10.142578 12.019531 C 14.44027 9.6097073 20.227894 8.3992737 26.222656 8.1152344 z "
     id="path4204" /></svg>